<?xml version="1.0" encoding="iso-8859-1"?>
<!-- Generator: Adobe Illustrator 16.0.0, SVG Export Plug-In . SVG Version: 6.00 Build 0)  -->
<!DOCTYPE svg PUBLIC "-//W3C//DTD SVG 1.1//EN" "http://www.w3.org/Graphics/SVG/1.1/DTD/svg11.dtd">
<svg version="1.1" id="Capa_1" xmlns="http://www.w3.org/2000/svg" xmlns:xlink="http://www.w3.org/1999/xlink" x="0px" y="0px"
	 width="46.5px" height="46.5px" viewBox="0 0 46.5 46.5" style="enable-background:new 0 0 46.5 46.5;" xml:space="preserve">
<g>
	<path d="M38.496,33.5h-0.902C34.186,21.901,18.765,9.228,12.087,7.088c0.17-0.525,0.264-1.084,0.264-1.665
		C12.351,2.433,9.917,0,6.927,0c-2.99,0-5.423,2.433-5.423,5.423c0,2.991,2.433,5.424,5.423,5.424c0.904,0,1.756-0.226,2.506-0.619
		C12.14,20.931,11.557,28.48,10.036,33.5h-0.54c-3.584,0-6.5,2.916-6.5,6.5s2.916,6.5,6.5,6.5h29c3.584,0,6.5-2.916,6.5-6.5
		S42.08,33.5,38.496,33.5z M6.927,7.848c-1.336,0-2.423-1.087-2.423-2.424c0-1.336,1.087-2.423,2.423-2.423
		c1.337,0,2.424,1.087,2.424,2.423C9.35,6.76,8.264,7.848,6.927,7.848z M38.496,43.5h-29c-1.93,0-3.5-1.57-3.5-3.5s1.57-3.5,3.5-3.5
		h29c1.93,0,3.5,1.57,3.5,3.5S40.426,43.5,38.496,43.5z"/>
</g>
<g>
</g>
<g>
</g>
<g>
</g>
<g>
</g>
<g>
</g>
<g>
</g>
<g>
</g>
<g>
</g>
<g>
</g>
<g>
</g>
<g>
</g>
<g>
</g>
<g>
</g>
<g>
</g>
<g>
</g>
</svg>
