<?xml version="1.0" encoding="iso-8859-1"?>
<!-- Generator: Adobe Illustrator 19.0.0, SVG Export Plug-In . SVG Version: 6.00 Build 0)  -->
<svg version="1.1" id="Capa_1" xmlns="http://www.w3.org/2000/svg" xmlns:xlink="http://www.w3.org/1999/xlink" x="0px" y="0px"
	 viewBox="0 0 297 297" style="enable-background:new 0 0 297 297;" xml:space="preserve">
<g>
	<path d="M132.134,237.929c19.903-16.097,25.639-28.938,31.712-42.534c6.574-14.72,13.373-29.94,36.26-48.451
		c13.751-11.121,25.125-16.809,35.437-20.306c-4.113-5.677-8.768-10.935-13.888-15.699c-10.78,2.894-22.114,7.599-36.791,19.469
		c-19.903,16.097-25.639,28.939-31.712,42.534c-6.574,14.72-13.373,29.94-36.259,48.451c-22.886,18.509-39.191,21.974-54.96,25.324
		c-1.298,0.275-2.59,0.551-3.881,0.833c3.603,5.609,7.715,10.857,12.267,15.688c4.662-1.296,9.147-2.249,13.59-3.193
		C98.474,256.949,112.23,254.025,132.134,237.929z"/>
	<path d="M106.831,208.951c19.903-16.097,25.639-28.939,31.712-42.534c6.574-14.72,13.373-29.94,36.26-48.451
		c12.049-9.744,22.272-15.316,31.556-18.9c-10.95-7.014-23.258-12.093-36.439-14.76c1.646-3.25,2.581-6.92,2.581-10.806
		c0-13.233-10.767-24-24-24s-24,10.767-24,24c0,3.886,0.935,7.556,2.581,10.806c-49.063,9.929-85.998,53.289-85.998,105.277
		c0,15.426,3.258,30.088,9.113,43.347c2.842-0.679,5.635-1.273,8.41-1.863C73.171,227.972,86.928,225.048,106.831,208.951z
		 M148.5,65.5c4.411,0,8,3.589,8,8s-3.589,8-8,8s-8-3.589-8-8S144.089,65.5,148.5,65.5z"/>
	<path d="M178.454,201.919c-6.574,14.72-13.373,29.941-36.259,48.451c-22.886,18.509-39.191,21.974-54.96,25.324
		c-0.765,0.162-1.526,0.325-2.287,0.488C102.745,289.266,124.719,297,148.501,297c59.322,0,107.416-48.093,107.416-107.417
		c0-17.603-4.235-34.218-11.741-48.881c-9.964,2.967-20.589,7.828-34.01,18.683C190.263,175.481,184.527,188.323,178.454,201.919z"
		/>
	<circle cx="148.497" cy="33" r="8"/>
	<circle cx="148.497" cy="8" r="8"/>
</g>
<g>
</g>
<g>
</g>
<g>
</g>
<g>
</g>
<g>
</g>
<g>
</g>
<g>
</g>
<g>
</g>
<g>
</g>
<g>
</g>
<g>
</g>
<g>
</g>
<g>
</g>
<g>
</g>
<g>
</g>
</svg>
