<?xml version="1.0" encoding="iso-8859-1"?>
<!-- Generator: Adobe Illustrator 16.0.0, SVG Export Plug-In . SVG Version: 6.00 Build 0)  -->
<!DOCTYPE svg PUBLIC "-//W3C//DTD SVG 1.1//EN" "http://www.w3.org/Graphics/SVG/1.1/DTD/svg11.dtd">
<svg version="1.1" id="Capa_1" xmlns="http://www.w3.org/2000/svg" xmlns:xlink="http://www.w3.org/1999/xlink" x="0px" y="0px"
	 width="46.148px" height="46.148px" viewBox="0 0 46.148 46.148" style="enable-background:new 0 0 46.148 46.148;"
	 xml:space="preserve">
<g>
	<g>
		<path d="M34.721,40.215c1.082,1.789,3.367,2.498,5.293,1.577c1.928-0.92,2.81-3.146,2.098-5.11L34.721,40.215z"/>
		<path d="M45.581,29.319l-1.924-1.995L27.76,34.923l0.342,2.751c0.082,0.645,0.467,1.209,1.037,1.521
			c0.299,0.165,0.633,0.246,0.967,0.246c0.297,0,0.595-0.064,0.871-0.196L45,32.541c0.585-0.279,1-0.824,1.116-1.462
			C46.23,30.441,46.032,29.786,45.581,29.319z"/>
		<path d="M6.134,41.792c1.926,0.92,4.211,0.211,5.294-1.578l-7.391-3.532C3.325,38.648,4.207,40.872,6.134,41.792z"/>
		<path d="M0.566,29.319c-0.45,0.467-0.649,1.122-0.534,1.76c0.115,0.64,0.53,1.183,1.116,1.462l14.024,6.704
			c0.275,0.132,0.573,0.196,0.869,0.196c0.335,0,0.668-0.082,0.969-0.246c0.569-0.312,0.955-0.877,1.035-1.521l0.343-2.751
			L2.49,27.324L0.566,29.319z"/>
		<path d="M19.266,16.9l-1.833,1.715c-0.497,0.465-1.085,0.806-1.72,1.008l-0.955,2.438c-0.059,0.148-0.024,0.317,0.089,0.431
			c0.076,0.078,0.18,0.119,0.285,0.119c0.048,0,0.098-0.009,0.146-0.027l1.38-0.532c0.119-0.046,0.241-0.068,0.363-0.068
			c0.376,0,0.733,0.211,0.907,0.566l0.649,1.33c0.068,0.138,0.209,0.226,0.363,0.226c0.004,0,0.011,0,0.016,0
			c0.159-0.006,0.301-0.106,0.359-0.254l2.183-5.567C20.609,18.077,19.83,17.581,19.266,16.9z"/>
		<path d="M27.191,24.104c0.008,0,0.013,0,0.019,0c0.151,0,0.292-0.086,0.36-0.226l0.65-1.33c0.174-0.355,0.531-0.566,0.906-0.566
			c0.122,0,0.244,0.022,0.363,0.068l1.38,0.533c0.047,0.018,0.096,0.027,0.146,0.027c0.104,0,0.209-0.041,0.285-0.119
			c0.113-0.114,0.148-0.283,0.09-0.431l-0.955-2.438c-0.637-0.203-1.224-0.543-1.722-1.009l-1.833-1.715
			c-0.562,0.682-1.343,1.177-2.232,1.383l2.185,5.567C26.893,23.998,27.033,24.098,27.191,24.104z"/>
		<path d="M27.785,14.303c0,0.368-0.034,0.725-0.126,1.064l2.183,2.036c0.545,0.508,1.254,0.776,1.971,0.776
			c0.387,0,0.746-0.078,1.113-0.238c1.053-0.457,1.701-1.494,1.701-2.64V6.83c0-1.146-0.648-2.183-1.699-2.639
			c-0.367-0.16-0.742-0.238-1.129-0.238c-0.717,0-1.412,0.268-1.958,0.776l-2.659,2.479c0.389,0.625,0.604,1.364,0.604,2.154V14.303
			z"/>
		<path d="M13.21,17.941c0.369,0.16,0.748,0.238,1.134,0.238c0.717,0,1.417-0.268,1.961-0.776l2.178-2.035
			c-0.092-0.34-0.139-0.696-0.139-1.065V9.362c0-0.791,0.221-1.528,0.61-2.154l-2.653-2.479c-0.543-0.508-1.25-0.776-1.967-0.776
			c-0.386,0-0.754,0.078-1.123,0.238c-1.051,0.456-1.71,1.493-1.71,2.639v8.471C11.501,16.447,12.158,17.484,13.21,17.941z"/>
		<path d="M36.27,17.729c-0.107-0.147-0.224-0.286-0.343-0.421c-0.474,0.944-1.272,1.718-2.278,2.155
			c-0.426,0.185-0.898,0.271-1.355,0.319l0,0l0.643,1.65c0.303,0.765,0.123,1.644-0.457,2.224c-0.385,0.386-0.918,0.611-1.461,0.611
			c-0.258,0-0.51-0.043-0.744-0.136l-0.821-0.315l-0.39,0.802c-0.347,0.7-1.09,1.163-1.852,1.162
			c-0.354-0.001-0.873-0.2-1.296-0.527c-0.077-0.06-0.185-0.064-0.267-0.01c-0.082,0.054-0.121,0.154-0.096,0.249l1.789,6.87
			l14.585-6.971L36.27,17.729z"/>
		<path d="M18.974,25.797c-0.681,0.02-1.535-0.458-1.887-1.173l-0.389-0.809l-0.823,0.318c-0.238,0.092-0.487,0.139-0.743,0.139
			c-0.552,0-1.071-0.215-1.463-0.608c-0.576-0.581-0.756-1.45-0.457-2.21l0.645-1.677c0,0-0.715-0.083-1.298-0.331
			c-1.036-0.439-1.823-1.239-2.275-2.216c-0.141,0.157-0.277,0.323-0.405,0.496l-5.656,7.666l14.585,6.973l1.772-6.816
			c0.024-0.095-0.015-0.195-0.098-0.25c-0.082-0.054-0.19-0.049-0.268,0.014C19.845,25.604,19.391,25.786,18.974,25.797z"/>
		<path d="M26.145,14.303V9.362c0-1.339-1.074-2.449-2.414-2.449h-1.313c-1.339,0-2.432,1.11-2.432,2.449v4.941
			c0,1.339,1.093,2.462,2.432,2.462h1.313C25.068,16.765,26.145,15.642,26.145,14.303z"/>
	</g>
</g>
<g>
</g>
<g>
</g>
<g>
</g>
<g>
</g>
<g>
</g>
<g>
</g>
<g>
</g>
<g>
</g>
<g>
</g>
<g>
</g>
<g>
</g>
<g>
</g>
<g>
</g>
<g>
</g>
<g>
</g>
</svg>
